Coordinates
version=1
nRows=9
nColumns=36
inDegrees=yes

Units are S.I. units (second, meters, Newtons, ...)
If the header above contains a line with 'inDegrees', this indicates whether rotational values are in degrees (yes) or radians (no).

endheader
time	pelvis_tilt	pelvis_list	pelvis_rotation	pelvis_tx	pelvis_ty	pelvis_tz	hip_flexion_r	hip_adduction_r	hip_rotation_r	knee_angle_r	knee_angle_r_beta	ankle_angle_r	subtalar_angle_r	mtp_angle_r	hip_flexion_l	hip_adduction_l	hip_rotation_l	knee_angle_l	knee_angle_l_beta	ankle_angle_l	subtalar_angle_l	mtp_angle_l	lumbar_extension	lumbar_bending	lumbar_rotation	arm_flex_r	arm_add_r	arm_rot_r	elbow_flex_r	pro_sup_r	arm_flex_l	arm_add_l	arm_rot_l	elbow_flex_l	pro_sup_l
      3.20000000	     -6.60669886	     -0.28174585	     -2.77809233	      0.74720092	      1.19310921	      0.06538937	      1.88856492	     -2.33836806	    -27.52945991	      5.87598175	      0.10255523	    -27.12103012	     -4.69790799	     -7.49999987	      0.70755004	     -3.25200950	    -18.64230088	      4.37016489	      0.07627377	    -18.29766857	      6.52371628	     -7.49999987	     -2.58219188	     -0.91851893	      0.40854454	    -15.90730329	     -7.04117028	    -10.29400248	     11.65548972	     79.01602174	     -5.10499792	     -9.72670176	    -14.47902146	     32.16819903	     82.01282242
      3.21666670	     -5.80188711	     -0.75469362	     -2.63836763	      0.74653900	      1.19716731	      0.06941819	      1.15236984	     -1.09402895	    -25.05266683	      8.37956115	      0.14625093	    -26.29295626	     -4.62605228	     -7.49999987	      0.58493995	     -3.46300669	    -17.44684086	      6.55714091	      0.11444370	    -17.60012730	      6.73986551	     -7.49999987	     -3.80969016	     -0.58947581	      0.51334962	    -14.64739310	     -6.84820777	     -2.62056473	     11.12665018	     72.09500428	     -3.20942424	    -10.59279060	     -6.91448281	     29.76747785	     70.15325199
      3.23333330	     -5.12928794	     -1.07886870	     -2.61261803	      0.74680267	      1.19685119	      0.06935668	      0.71952358	     -0.23002280	    -22.95829354	     10.91503470	      0.19050329	    -24.69159905	     -4.70380077	     -7.49999987	      0.65528735	     -3.61280440	    -16.14795820	      8.22160305	      0.14349404	    -16.20047052	      6.76072283	     -7.49999987	     -4.66563246	     -0.49756760	      0.77699646	    -14.01342052	     -6.40209390	     -0.66869447	     11.06732882	     71.79266486	     -2.09317920	    -10.75186918	     -4.22972840	     27.74912217	     70.03877176
      3.25000000	     -4.64176344	     -0.95365546	     -2.77644876	      0.74377435	      1.21473346	      0.06732651	      0.51429841	     -0.21036241	    -21.66988856	     12.53692306	      0.21881059	    -23.45059673	     -4.30042717	     -7.49999987	      0.55101598	     -3.25352615	    -15.34210677	      9.08244761	      0.15851861	    -15.03465053	      6.53093699	     -7.49999987	     -5.30744817	     -0.84596731	      0.83901876	    -13.54802481	     -6.25565324	      3.43926588	     11.50428302	     68.91916632	     -1.00267480	    -11.08261673	      1.22831322	     25.39009995	     66.65232567
      3.26666670	     -4.36191478	     -0.62725162	     -2.91374910	      0.73748787	      1.20829207	      0.06664420	      0.91979533	     -0.67867400	    -20.40307241	     13.95191360	      0.24350683	    -21.16290961	     -4.93065810	     -7.49999987	      1.06109159	     -2.86773294	    -14.64955551	     10.06682489	      0.17569924	    -13.03618492	      5.27159533	     -7.49999987	     -5.89011493	     -1.39716159	      0.47451562	    -12.74974770	     -6.00062846	      4.45742092	     11.67484920	     66.64767579	     -0.74592204	    -11.15060190	      2.15054365	     24.08677385	     64.77130186
      3.28333330	     -4.33113291	     -0.07447107	     -2.88404304	      0.73752546	      1.21960091	      0.06738216	      1.12346483	     -1.46028627	    -19.93747900	     13.69024873	      0.23893992	    -19.78866167	     -5.03295015	     -7.49999987	      1.36465091	     -2.45868266	    -14.15766732	     10.31298316	      0.17999551	    -11.38082082	      4.54431548	     -7.49999987	     -6.08019434	     -2.20743959	      0.17035195	    -12.40940451	     -5.66200413	      5.86055646	     11.67964342	     65.34652605	     -0.59298045	    -11.31397016	      3.70368053	     22.70478808	     63.61941713
      3.30000000	     -4.66982699	      0.15578603	     -3.04569809	      0.73222299	      1.22717665	      0.06272912	      1.65925043	     -2.02845096	    -19.59263843	     12.33293995	      0.21525041	    -19.60268216	     -4.79677708	     -7.49999987	      1.71509944	     -2.35052870	    -14.40058459	      9.49500342	      0.16571907	    -10.68591857	      4.18085122	     -7.49999987	     -6.12583317	     -2.43699546	     -0.04805522	    -12.23610670	     -5.68492607	      6.08253274	     11.96235909	     65.28724757	     -0.87338258	    -11.29600221	      4.11946774	     22.28126483	     63.59339366
      3.31666670	     -4.89758064	      0.31703488	     -2.94910913	      0.73177250	      1.22442801	      0.06273210	      1.51999593	     -2.40920952	    -19.81420100	     10.01755427	      0.17483931	    -20.57351895	     -4.03936350	     -7.49999987	      1.87074065	     -2.40743547	    -14.87418361	      8.44746152	      0.14743602	    -11.33143915	      4.05243408	     -7.49999987	     -6.01184824	     -2.59019113	      0.19921061	    -12.37671033	     -6.19590881	     13.68538880	     12.16483964	     60.87756078	      0.60754622	    -12.04231365	     15.49235867	     18.30433553	     59.64858076
      3.33333330	     -5.32785038	      0.32802117	     -3.22877711	      0.72191614	      1.21717110	      0.06347448	      2.17693118	     -2.68269840	    -19.61411503	      8.44409624	      0.14737728	    -21.23524986	     -3.35038059	     -7.49999987	      2.53298452	     -2.70373807	    -15.43108658	      7.34855097	      0.12825641	    -11.59655605	      4.10820461	     -7.49999987	     -6.15018777	     -2.56897770	      0.16456942	    -11.88763193	     -6.28882656	     13.80618213	     11.97029896	     60.63545695	      0.29691033	    -11.85204822	     15.57178331	     17.71058958	     59.34058943
